<svg width="20" height="20" viewBox="0 0 20 20" fill="none" xmlns="http://www.w3.org/2000/svg">
<g id="ep:arrow-down">
<path id="Vector" d="M16.2475 6.6574L10 12.7474L3.7525 6.6574C3.64088 6.54837 3.49103 6.48733 3.335 6.48733C3.17897 6.48733 3.02912 6.54837 2.9175 6.6574C2.86345 6.71036 2.82052 6.77356 2.7912 6.84332C2.76189 6.91308 2.74679 6.98798 2.74679 7.06365C2.74679 7.13932 2.76189 7.21422 2.7912 7.28398C2.82052 7.35374 2.86345 7.41694 2.9175 7.4699L9.56375 13.9499C9.68047 14.0637 9.83701 14.1273 10 14.1273C10.163 14.1273 10.3195 14.0637 10.4362 13.9499L17.0825 7.47115C17.1369 7.41816 17.1802 7.35479 17.2097 7.2848C17.2393 7.21481 17.2545 7.13962 17.2545 7.06365C17.2545 6.98768 17.2393 6.91248 17.2097 6.8425C17.1802 6.77251 17.1369 6.70914 17.0825 6.65615C16.9709 6.54712 16.821 6.48608 16.665 6.48608C16.509 6.48608 16.3591 6.54712 16.2475 6.65615V6.6574Z" fill="#FDFDFD"/>
</g>
</svg>
